<?xml version="1.0" encoding="UTF-8"?>
<svg id="Layer_2" data-name="Layer 2" xmlns="http://www.w3.org/2000/svg" xmlns:xlink="http://www.w3.org/1999/xlink" viewBox="0 0 292.65 101.54">
  <defs>
    <style>
      .cls-1 {
        fill: none;
      }

      .cls-2 {
        fill: url(#linear-gradient);
      }

      .cls-3 {
        clip-path: url(#clippath);
      }

      .cls-4 {
        fill: #ec1c24;
      }

      .cls-5 {
        clip-path: url(#clippath-1);
      }

      .cls-6 {
        clip-path: url(#clippath-4);
      }

      .cls-7 {
        clip-path: url(#clippath-3);
      }

      .cls-8 {
        clip-path: url(#clippath-2);
      }

      .cls-9 {
        fill: url(#linear-gradient-3);
      }

      .cls-10 {
        fill: url(#linear-gradient-4);
      }

      .cls-11 {
        fill: url(#linear-gradient-2);
      }

      .cls-12 {
        fill: url(#linear-gradient-5);
      }
    </style>
    <clipPath id="clippath">
      <path class="cls-1" d="m260.95,76.1c-3.55-2.99-5.24-4.05-9.04-4.05s-7.63,2.04-10.73,4.01c-1.56,1-3.2,1.94-5,2.32-1.4.29-3.57.39-4.66-1.18,2.03,5.41,6.41,5.15,10.71,3.01,4.11-2.05,9.17-8.6,16.34-3.69-3.33-1.81-7.4-.97-12.61,3.18-5.66,4.51-8.79,3.84-10.37,2.97,4.71,4.38,11.4-1.7,16.07-3.58,2.85-1.15,5.88-.94,8.77-.11,2.86.82,7.19,2.43,11.13-.71-3.58,1.31-7.62.38-10.63-2.15m-5.23,6.2c-1.78.19-2.6.16-4.26.91,2.3-1.82,4.04-3.05,6.81-3.18-7.07-2.88-11.48,7.59-18.76,4.86,4.25,3.01,7.68,1.31,10.24,0,1.46-.56,3.2-.81,4.17-.86-1.94,2.04-4.54,3.74-7.23,3.83,4.57,1.28,7.67-1.23,10.48-3.5,1.85-1.49,3.14-3.16,6.06-2.99.3.02.67.01.85.02-.1-.02-.31-.09-.41-.12-3-.94-5.78-.52-7.97,1.02"/>
    </clipPath>
    <linearGradient id="linear-gradient" x1="1806.32" y1="847.11" x2="1807.32" y2="847.11" gradientTransform="translate(-72112.82 34007.76) scale(40.05 -40.05)" gradientUnits="userSpaceOnUse">
      <stop offset="0" stop-color="#a2238d"/>
      <stop offset=".25" stop-color="#a2238d"/>
      <stop offset=".6" stop-color="#d70b8b"/>
      <stop offset="1" stop-color="#d70b8b"/>
    </linearGradient>
    <clipPath id="clippath-1">
      <path class="cls-1" d="m284.37,75.82c-1.32-.45-2.24-.81-3.73-.56.75-.49,3.02-.77,4.39-.52-7.75-3.72-11.48,7.94-20.41,6.76,3.87,1.98,8.37.38,11.55-2.13,4.01-3.16,5.88,1.61,9.34-.95-1.24.43-2.25-.4-3.4-1.05-1.05-.61-2.24-1.08-3.24-.31,2.39-2.43,5.74,2.18,8.51-.95-.94.48-2.12.07-3.02-.28m7.06-9.71c.11,1.24-.96,1.65-1.9,1.86-2.11.47-5.59-.51-6.7-1.38,3.22-2.07-3.59-4.99-6.32-3.59,3.67.2,2.7,2.48-.63,2.61-2.58.1-6.16-.92-7.67-3.54.11,2.59,1.71,4.53,4.07,5.15-2.43.77-9.88.07-12.21-4.08.54,4.8,5.73,8.14,9.69,7.87-3,2.18-6,.98-9.45-.4-3.37-1.34-6.44-3.19-9.98-.56,4.62-1.21,7.67,1.78,10.81,4.3,3.21,2.57,5.21,3.85,9.07,3.33,4.55-.61,7.59-4.89,12.87-4.89,2.51,0,3.82,1.42,5.45,1.42.67.02,1.34-.2,2.01-.84-1.97.66-2.72-.84-1.68-.65,1.84.32,3.19-1.1,3.53-2.44.27-1.05.27-2.47-.95-4.14m-11.79,4.32c-.6,0-1.09-.49-1.09-1.09s.49-1.09,1.09-1.09,1.09.49,1.09,1.09-.48,1.09-1.09,1.09"/>
    </clipPath>
    <linearGradient id="linear-gradient-2" x1="1808.75" y1="846.45" x2="1809.75" y2="846.45" gradientTransform="translate(-76067.97 35787.58) scale(42.19 -42.19)" gradientUnits="userSpaceOnUse">
      <stop offset="0" stop-color="#f9a51a"/>
      <stop offset=".25" stop-color="#f9a51a"/>
      <stop offset=".6" stop-color="#ec1c24"/>
      <stop offset="1" stop-color="#ec1c24"/>
    </linearGradient>
    <clipPath id="clippath-2">
      <path class="cls-1" d="m24.57,57.69c.59,17.55,15.62,43.85,37.36,34.49,7.39-3.18,13.76-12.32,17.55-14.71,9.33-5.88,21.86,4.31,31.36,9.15,11.01,5.64,23.85,5.85,34.86-.16,12.48-6.48,24.59-14.47,36.86-21.12,4.44-2.4,8.98-4.48,13.78-6.04,16.25-5.59,31.2-5.79,47.12,1.57.67.24,2.77,1,4.87,2,4.2,2.01,10.87,5.33,11.91,5.72-.35-.42-2.4-2.68-5.05-4.23-1.84-1.08-3.8-2.33-5.7-3.33-2.17-1.15-4.06-2.04-5.18-2.43-14.71-6.4-29.45-7.95-45.39-3.55-6.55,1.55-12.76,4.11-18.77,7.1-12.27,6.12-24,13.23-36.4,19.37-9.17,3.99-20.09,5.1-29.69,1.91-12.4-3.81-26.24-16.4-37.96-6.58-20.79,17.43-39.37,15.67-50.94-19.28-.2-.6-.61-.54-.58.12"/>
    </clipPath>
    <linearGradient id="linear-gradient-3" x1="1845.99" y1="836.29" x2="1846.99" y2="836.29" gradientTransform="translate(-435013.05 197162.67) scale(235.67 -235.67)" gradientUnits="userSpaceOnUse">
      <stop offset="0" stop-color="#a5cd39"/>
      <stop offset=".04" stop-color="#a5cd39"/>
      <stop offset=".09" stop-color="#a5cd39"/>
      <stop offset=".6" stop-color="#00a551"/>
      <stop offset="1" stop-color="#00a551"/>
    </linearGradient>
    <clipPath id="clippath-3">
      <path class="cls-1" d="m269.22,53.75c-23.31-1.12-50.97,9.75-62.34,12.44-8.98,2.13-16.01,3.97-20.78,3.13-8.29-1.45-8.7-6.63-14.24-10.77-.84-.63-1.64-1.22-2.66-1.48-3.79-1.59-9.69.58-12.26.31-.16-.01-.31-.04-.47-.08-2.96-1.43-3.74-4.15-6.88-5.16-3.39-1.09-7.55-.14-11.25,1.22-2.07.76-3.62,1.11-5.34.67-.54-.22-1.11-.51-1.73-.9-3-1.9-5.8-5.59-6.97-7.17-.66-.9-2.24-3.55-5.13-3.68-2.2-.09-3.06.57-4.43,1.81-.83.75-1.51.92-1.89.88-1.42-.13-2.62-.73-3.63.52-.86,1.06-.4,3.26-.52,4.56-.32,3.49-2.49,5.39-4.22,6.56-2.25,1.52-4.09.94-7.3,2.86-1.83,1.1-.86,5.59-5.36,4.04-8.91-2.69-17.64-4.24-25.33-2.64-14.77,3.08-27.09,12.43-42.2,14.37-7.34.94-13.83-.09-22.55-4.02-1.01-.47-1.76-.47-1.36-.1,7.99,7.15,17.68,9.86,27.1,8.61,15.5-2.05,28.56-15.23,43.99-16.14,10.58-.97,14.81,1.26,22.94,3.29,0,0,1.59.48,2.25-.5.66-.99.73-1.78,1.4-2.19,3.22-1.94,4.96-1.28,7.22-2.81,1.74-1.18,3.62-3.08,4.24-6.59.23-1.29-.14-3.71.52-4.58.98-1.27,2.22-.65,3.64-.52.38.03,1.07-.13,1.9-.88,1.38-1.25,2.23-1.82,4.45-1.82,3,0,4.48,2.79,5.15,3.69,1.17,1.58,3.98,5.3,6.99,7.2.62.39,1.19.68,1.73.91,1.73.44,3.29.09,5.37-.67,3.72-1.37,7.92-2.2,11.16-1.27,2.96.85,4.71,4.3,7.04,5.22.15.03.31.06.47.08,2.58.27,8.5-1.91,12.31-.31,1.02.26,1.82.85,2.67,1.48,4.08,3.05,6.15,5.74,10.23,7.53.38.1.81.33,1.19.44,8.86,2.38,16.66.22,25.55-1.66,13.38-2.83,40.25-13.84,59.6-13.74,13.85.07,20.38,5.02,21.75,9.26-.69-5.58-6.65-10.67-22.04-11.41"/>
    </clipPath>
    <linearGradient id="linear-gradient-4" x1="1847.53" y1="835.88" x2="1848.53" y2="835.88" gradientTransform="translate(-537578.25 243279.68) scale(290.97 -290.97)" gradientUnits="userSpaceOnUse">
      <stop offset="0" stop-color="#f9a51a"/>
      <stop offset=".25" stop-color="#f9a51a"/>
      <stop offset=".59" stop-color="#ec1c24"/>
      <stop offset="1" stop-color="#ec1c24"/>
    </linearGradient>
    <clipPath id="clippath-4">
      <path class="cls-1" d="m221.73,71.35c-12.87-3.26-22.05-11.05-30.39-19.07-11.07-10.65-22.95-21.09-38.4-24.47-8.5-1.86-17.42-2.03-26.09-.57-11.06,1.87-21.69,6.4-31.45,11.91-1.64.91-3.25,1.84-4.87,2.77-11.3,6.52-21.92,13.24-35.38,12.96-15.32-.33-23.4-21.56-38.46-17.9-.17.04,0,.33.68.4,6.68.69,8.31,3.2,12.83,7.34,5.67,5.19,11.39,9.6,20.01,11.85,16.31,4.27,30.65-1.89,43.71-10.15,3.91-2.47,22.34-12.37,32.28-15.09,9.43-2.57,19.05-3.03,28.04-.93,14.36,3.37,24.19,14.78,34.57,24.42,4.14,3.84,8.4,7.59,12.25,10.65,13.52,10.76,25.42,5.93,30.16,11.04-1.29-2.65-4.28-3.9-9.52-5.17"/>
    </clipPath>
    <linearGradient id="linear-gradient-5" x1="1873.18" y1="828.89" x2="1874.18" y2="828.89" gradientTransform="translate(188181.69 -83142.4) rotate(-180) scale(100.37 -100.37)" gradientUnits="userSpaceOnUse">
      <stop offset="0" stop-color="#a2238d"/>
      <stop offset=".25" stop-color="#2e3191"/>
      <stop offset=".5" stop-color="#00adee"/>
      <stop offset="1" stop-color="#00adee"/>
    </linearGradient>
  </defs>
  <g id="Layer_1-2" data-name="Layer 1">
    <g>
      <path class="cls-4" d="m283.59,33.29c3.16,0,5.72-2.57,5.72-5.73v-2.39h3.21v-3.96h-3.93c-.59,0-1.48-.56-1.74-1.09,0,0-.91-1.9-1.89-3.95h6.42v-3.96h-7.41v-4.87h7.41v-3.96h-7.41V0h-3.96v3.36h-10.94V0h-3.96v3.36h-7.03v3.96h7.03v4.87h-7.03v3.96h6.05l-1.89,3.95c-.25.53-1.15,1.1-1.74,1.1h-3.92v3.96h3.49c-.18.56-.28,1.15-.28,1.76v8.75c0,3.16,2.57,5.73,5.73,5.73h25.87v-3.96h-25.87c-.97,0-1.76-.79-1.76-1.77v-2.39h19.82Zm-3.56-21.09h-10.94v-4.87h10.94v4.87Zm.56,3.96l2.41,5.05h-16.87l2.41-5.05h12.06Zm-16.81,11.93v-1.16c0-.97.79-1.76,1.76-1.76h18.06c.97,0,1.76.79,1.76,1.76v.63c0,.97-.79,1.76-1.76,1.76h-19.82v-1.24Z"/>
      <rect class="cls-4" x="250.69" y="0" width="3.96" height="7.33"/>
      <rect class="cls-4" x="250.69" y="12.2" width="3.96" height="9.06"/>
      <rect class="cls-4" x="250.69" y="26.14" width="3.96" height="15.27"/>
      <path class="cls-4" d="m237.34,20.12l-3.23-6.78h7.65v-3.96h-18.72V3.96h17.04V0h-37.86v3.96h16.85v5.41h-18.72v3.96h8.02l-3.23,6.78c-.25.53-1.15,1.09-1.74,1.09h-5v3.96h5s.03,0,.04,0c-.18.56-.28,1.15-.28,1.77v8.75c0,3.16,2.57,5.73,5.73,5.73h24.35c3.16,0,5.73-2.57,5.73-5.73v-8.75c0-.63-.11-1.23-.29-1.8.14.01.28.03.42.03h5v-3.96h-5c-.59,0-1.48-.56-1.73-1.09m-7.62-6.78l3.76,7.88c-.09,0-.17-.01-.26-.01h-10.19v-7.87h6.69Zm-10.65,0v7.87h-10.07l3.75-7.87h6.32Zm15.91,22.34c0,.97-.79,1.76-1.76,1.76h-24.35c-.97,0-1.76-.79-1.76-1.76v-2.39h27.87v2.39Zm-27.87-6.36v-2.39c0-.97.79-1.76,1.76-1.76h24.35c.97,0,1.76.79,1.76,1.76v2.39h-27.87Z"/>
      <g class="cls-3">
        <rect class="cls-2" x="231.53" y="71.59" width="40.05" height="17.56"/>
      </g>
      <g class="cls-5">
        <rect class="cls-11" x="250.34" y="61.6" width="42.32" height="21.88"/>
      </g>
      <g class="cls-8">
        <rect class="cls-9" x="24.55" y="50.64" width="235.69" height="50.9"/>
      </g>
      <g class="cls-7">
        <rect class="cls-10" y="42.2" width="291.26" height="38.79"/>
      </g>
      <g class="cls-6">
        <rect class="cls-12" x="16.53" y="25.78" width="214.72" height="50.73"/>
      </g>
      <rect class="cls-1" x=".29" y="0" width="292.24" height="94.14"/>
    </g>
  </g>
</svg>