<svg xmlns="http://www.w3.org/2000/svg" width="30" height="30" viewBox="0 0 30 30">
  <g id="Group_2341" data-name="Group 2341" transform="translate(-1207 -5223)">
    <path id="arroba" d="M25.789,11.387a12.713,12.713,0,1,0-14.276,14.4,13.165,13.165,0,0,0,1.705.112,12.587,12.587,0,0,0,6.536-1.818,1.23,1.23,0,1,0-1.269-2.107,10.252,10.252,0,1,1,4.405-5.429,1.776,1.776,0,0,1-1.7,1.153,1.835,1.835,0,0,1-1.833-1.833v-7.6a1.23,1.23,0,1,0-2.46,0v.011a6.149,6.149,0,1,0,.444,9.448,4.283,4.283,0,0,0,3.849,2.429,4.237,4.237,0,0,0,4.029-2.807,12.737,12.737,0,0,0,.573-5.966ZM13.205,16.881a3.69,3.69,0,1,1,3.69-3.69A3.69,3.69,0,0,1,13.205,16.881Z" transform="translate(1208.519 5224.599)" fill="#fff"/>
    <rect id="Rectangle_1043" data-name="Rectangle 1043" width="30" height="30" transform="translate(1207 5223)" fill="none"/>
  </g>
</svg>
