<svg xmlns="http://www.w3.org/2000/svg" width="30" height="30" viewBox="0 0 30 30">
  <g id="Group_2340" data-name="Group 2340" transform="translate(-907 -5223)">
    <g id="Printer" transform="translate(906 5222)">
      <path id="Path_5928" data-name="Path 5928" d="M26,8H23V4a1,1,0,0,0-1-1H10A1,1,0,0,0,9,4V8H6a3,3,0,0,0-3,3v9a3,3,0,0,0,3,3H9v5a1,1,0,0,0,1,1H22a1,1,0,0,0,1-1V23h3a3,3,0,0,0,3-3V11a3,3,0,0,0-3-3ZM11,5H21V8H11ZM21,27H11V18H21Zm6-7a1,1,0,0,1-1,1H23V17a1,1,0,0,0-1-1H10a1,1,0,0,0-1,1v4H6a1,1,0,0,1-1-1V11a1,1,0,0,1,1-1H26a1,1,0,0,1,1,1Z" fill="#fff"/>
      <path id="Path_5929" data-name="Path 5929" d="M18,20H14a1,1,0,0,0,0,2h4a1,1,0,0,0,0-2Z" fill="#fff"/>
      <path id="Path_5930" data-name="Path 5930" d="M18,23H14a1,1,0,0,0,0,2h4a1,1,0,0,0,0-2Z" fill="#fff"/>
      <path id="Path_5931" data-name="Path 5931" d="M24,12a1,1,0,1,0,1,1,1,1,0,0,0-1-1Z" fill="#fff"/>
    </g>
    <rect id="Rectangle_1044" data-name="Rectangle 1044" width="30" height="30" transform="translate(907 5223)" fill="none"/>
  </g>
</svg>
