<svg xmlns="http://www.w3.org/2000/svg" width="30" height="30" viewBox="0 0 30 30">
  <g id="Group_2339" data-name="Group 2339" transform="translate(-586 -5223)">
    <g id="phone-call" transform="translate(587.655 5225)">
      <g id="Group_2296" data-name="Group 2296" transform="translate(0.344 0)">
        <path id="Path_5899" data-name="Path 5899" d="M20.692,41.879a2.535,2.535,0,0,0-1.838-.843,2.621,2.621,0,0,0-1.86.838l-1.719,1.713c-.141-.076-.283-.147-.419-.218-.2-.1-.381-.19-.538-.288A18.68,18.68,0,0,1,9.841,39a11.02,11.02,0,0,1-1.469-2.317c.446-.408.859-.832,1.262-1.24.152-.152.3-.31.457-.462a2.5,2.5,0,0,0,0-3.764L8.607,29.734c-.169-.169-.343-.343-.506-.517-.326-.337-.669-.685-1.023-1.012a2.575,2.575,0,0,0-1.822-.8,2.664,2.664,0,0,0-1.849.8l-.011.011L1.547,30.082a3.979,3.979,0,0,0-1.18,2.529,9.534,9.534,0,0,0,.7,4.036,23.418,23.418,0,0,0,4.161,6.94,25.6,25.6,0,0,0,8.523,6.674,13.279,13.279,0,0,0,4.786,1.414c.114.005.234.011.343.011a4.1,4.1,0,0,0,3.138-1.349c.005-.011.016-.016.022-.027a12.365,12.365,0,0,1,.952-.984c.234-.223.473-.457.707-.7a2.713,2.713,0,0,0,.821-1.882,2.614,2.614,0,0,0-.838-1.866Zm1.947,5.727c-.005,0-.005.005,0,0-.212.228-.43.435-.664.664a14.3,14.3,0,0,0-1.05,1.088,2.622,2.622,0,0,1-2.045.865c-.082,0-.169,0-.25-.005a11.8,11.8,0,0,1-4.242-1.273,24.16,24.16,0,0,1-8.028-6.287,22.081,22.081,0,0,1-3.916-6.521,7.766,7.766,0,0,1-.609-3.4,2.5,2.5,0,0,1,.751-1.615l1.855-1.855a1.236,1.236,0,0,1,.827-.386,1.163,1.163,0,0,1,.794.381l.016.016c.332.31.647.631.979.974.169.174.343.348.517.528l1.485,1.485a1.038,1.038,0,0,1,0,1.686c-.158.158-.31.315-.468.468-.457.468-.892.9-1.365,1.327-.011.011-.022.016-.027.027A1.109,1.109,0,0,0,6.915,37l.016.049a11.921,11.921,0,0,0,1.757,2.866l.005.005a19.963,19.963,0,0,0,4.83,4.395,7.427,7.427,0,0,0,.669.364c.2.1.381.19.538.288.022.011.044.027.065.038a1.179,1.179,0,0,0,.538.136,1.163,1.163,0,0,0,.827-.375l1.86-1.86a1.23,1.23,0,0,1,.821-.408,1.108,1.108,0,0,1,.783.4l.011.011,3,3A1.075,1.075,0,0,1,22.639,47.606Z" transform="translate(-0.344 -25.915)" fill="#fff"/>
        <path id="Path_5899_-_Outline" data-name="Path 5899 - Outline" d="M18.875,51.885c-.11,0-.229-.005-.352-.011a13.532,13.532,0,0,1-4.862-1.433,25.8,25.8,0,0,1-8.59-6.726,23.63,23.63,0,0,1-4.195-7,9.727,9.727,0,0,1-.708-4.122,4.179,4.179,0,0,1,1.238-2.654l1.86-1.876a2.858,2.858,0,0,1,1.991-.858,2.767,2.767,0,0,1,1.96.855c.361.333.707.686,1.028,1.017.163.174.336.347.5.514l1.485,1.485a2.694,2.694,0,0,1,0,4.047l-.227.23-.23.232L9.66,35.7c-.334.339-.678.688-1.045,1.029A11.038,11.038,0,0,0,10,38.878a18.488,18.488,0,0,0,4.427,4.034c.148.092.329.182.521.278l.142.073.15.078,1.614-1.609a2.819,2.819,0,0,1,2-.9,2.727,2.727,0,0,1,1.983.9l2.983,2.994a2.805,2.805,0,0,1,.9,2.007,2.906,2.906,0,0,1-.877,2.02c-.2.213-.43.438-.713.708l-.075.072a11.286,11.286,0,0,0-.853.885l-.016.02,0,0-.019.021A4.294,4.294,0,0,1,18.875,51.885ZM5.256,27.606a2.464,2.464,0,0,0-1.711.744L1.689,30.223A3.789,3.789,0,0,0,.566,32.629a9.349,9.349,0,0,0,.684,3.949,23.243,23.243,0,0,0,4.127,6.882,25.4,25.4,0,0,0,8.456,6.621,13.156,13.156,0,0,0,4.712,1.395c.119.006.229.01.33.01a3.908,3.908,0,0,0,2.981-1.273l.016-.019.009-.011a11.452,11.452,0,0,1,.891-.928l.076-.073c.28-.267.5-.488.7-.7a2.515,2.515,0,0,0,.766-1.744,2.416,2.416,0,0,0-.778-1.723l-2.987-3a2.34,2.34,0,0,0-1.7-.784,2.429,2.429,0,0,0-1.719.779l-1.824,1.818-.131-.07c-.092-.05-.184-.1-.275-.143l-.141-.073c-.2-.1-.386-.193-.552-.3a18.887,18.887,0,0,1-4.526-4.123,11.157,11.157,0,0,1-1.5-2.361l-.06-.132.107-.1c.4-.365.774-.746,1.137-1.114l.117-.119.228-.231.23-.232a2.3,2.3,0,0,0,0-3.481L8.465,29.875c-.17-.17-.345-.345-.51-.521-.315-.326-.658-.674-1.012-1l-.005,0A2.377,2.377,0,0,0,5.256,27.606ZM18.881,50.422c-.082,0-.175,0-.264-.006A11.97,11.97,0,0,1,14.3,49.124a24.353,24.353,0,0,1-8.095-6.339,22.3,22.3,0,0,1-3.95-6.58,7.931,7.931,0,0,1-.621-3.491,2.692,2.692,0,0,1,.808-1.74L4.3,29.115a1.434,1.434,0,0,1,.964-.44,1.337,1.337,0,0,1,.936.439l.014.014c.319.3.624.607.984.978l.257.263.259.265L9.2,32.116a1.232,1.232,0,0,1,0,1.969l-.156.157c-.1.1-.206.208-.312.311-.487.5-.907.916-1.369,1.331h0l-.023.023a.908.908,0,0,0-.234,1.033l.013.039a11.742,11.742,0,0,0,1.719,2.8l.011.012a19.747,19.747,0,0,0,4.781,4.352,7.255,7.255,0,0,0,.652.355c.2.1.384.192.548.293l.04.023.016.01a.978.978,0,0,0,.449.115.959.959,0,0,0,.685-.317l1.86-1.86a1.422,1.422,0,0,1,.963-.466,1.309,1.309,0,0,1,.928.459l3,3a1.237,1.237,0,0,1,.275,1.644h.072l-.339.339c-.175.189-.354.363-.544.547l-.124.12a14.2,14.2,0,0,0-1.037,1.074l-.006.007A2.812,2.812,0,0,1,18.881,50.422ZM4.58,29.4,2.727,31.257a2.306,2.306,0,0,0-.693,1.491,7.561,7.561,0,0,0,.6,3.318,21.916,21.916,0,0,0,3.883,6.464,23.953,23.953,0,0,0,7.961,6.235,11.6,11.6,0,0,0,4.168,1.253c.075.005.158.005.237.005a2.436,2.436,0,0,0,1.9-.8,14.568,14.568,0,0,1,1.061-1.1l.123-.119c.165-.161.322-.313.475-.474v-.123h.116a.869.869,0,0,0-.058-1.361l-3.015-3.015a.921.921,0,0,0-.635-.332,1.041,1.041,0,0,0-.68.349l-1.86,1.86a1.352,1.352,0,0,1-.968.434,1.381,1.381,0,0,1-.628-.157c-.016-.008-.033-.018-.049-.028l-.016-.01-.016-.009c-.15-.093-.331-.184-.522-.279a7.567,7.567,0,0,1-.687-.374,20.133,20.133,0,0,1-4.871-4.429l-.014-.016a12.126,12.126,0,0,1-1.785-2.914L6.739,37.1l-.013-.039a1.307,1.307,0,0,1,.319-1.427.267.267,0,0,1,.043-.043l0,0c.456-.409.872-.823,1.356-1.318l0,0c.1-.1.2-.2.307-.306l.158-.159a.845.845,0,0,0,0-1.4L7.432,30.914l-.259-.265-.259-.265c-.357-.368-.658-.674-.972-.967L5.92,29.4a.974.974,0,0,0-.653-.322A1.048,1.048,0,0,0,4.58,29.4Z" transform="translate(-0.344 -25.915)" fill="#fff"/>
        <path id="Path_5900" data-name="Path 5900" d="M245.548,87.382a7,7,0,0,1,5.7,5.7.73.73,0,0,0,.723.609.973.973,0,0,0,.125-.011.735.735,0,0,0,.6-.848,8.464,8.464,0,0,0-6.9-6.9.738.738,0,0,0-.848.6A.726.726,0,0,0,245.548,87.382Z" transform="translate(-231.64 -81.252)" fill="#fff"/>
        <path id="Path_5900_-_Outline" data-name="Path 5900 - Outline" d="M245.682,85.725h0a.962.962,0,0,1,.153.012A8.664,8.664,0,0,1,252.9,92.8a.938.938,0,0,1-.769,1.079l-.02,0a1.04,1.04,0,0,1-.137.011.929.929,0,0,1-.921-.776,6.8,6.8,0,0,0-5.536-5.536.908.908,0,0,1-.6-.374.938.938,0,0,1,.766-1.48Zm6.386,7.757a.537.537,0,0,0,.435-.619,8.264,8.264,0,0,0-6.733-6.731.555.555,0,0,0-.088-.007.538.538,0,0,0-.44.848.512.512,0,0,0,.338.211,7.2,7.2,0,0,1,5.865,5.864.53.53,0,0,0,.526.443.7.7,0,0,0,.087-.008Z" transform="translate(-231.64 -81.252)" fill="#fff"/>
        <path id="Path_5901" data-name="Path 5901" d="M260.985,11.368A13.937,13.937,0,0,0,249.628.011a.733.733,0,1,0-.239,1.447,12.448,12.448,0,0,1,10.149,10.149.73.73,0,0,0,.723.609.971.971,0,0,0,.125-.011A.721.721,0,0,0,260.985,11.368Z" transform="translate(-235.263 0)" fill="#fff"/>
        <path id="Path_5901_-_Outline" data-name="Path 5901 - Outline" d="M260.261,12.416a.929.929,0,0,1-.921-.776,12.249,12.249,0,0,0-9.985-9.985A.934.934,0,0,1,249.5-.2a.921.921,0,0,1,.161.014,14.137,14.137,0,0,1,11.519,11.52.921.921,0,0,1-.766,1.069l-.018,0A1.038,1.038,0,0,1,260.261,12.416ZM249.5.2a.534.534,0,0,0-.079,1.061,12.648,12.648,0,0,1,10.312,10.313.53.53,0,0,0,.526.443.7.7,0,0,0,.087-.008h.01a.511.511,0,0,0,.339-.21.517.517,0,0,0,.09-.395A13.737,13.737,0,0,0,249.595.209.526.526,0,0,0,249.5.2Z" transform="translate(-235.263 0)" fill="#fff"/>
      </g>
    </g>
    <rect id="Rectangle_1045" data-name="Rectangle 1045" width="30" height="30" transform="translate(586 5223)" fill="none"/>
  </g>
</svg>
