<svg xmlns="http://www.w3.org/2000/svg" width="32.321" height="11.705" viewBox="0 0 32.321 11.705">
  <g id="right-arrow" transform="translate(-4 -498.925)">
    <g id="Group_2332" data-name="Group 2332" transform="translate(4 498.925)">
      <g id="Group_2331" data-name="Group 2331" transform="translate(0 0)">
        <g id="Group_2329" data-name="Group 2329">
          <path id="Path_5932" data-name="Path 5932" d="M35.653,505.44H4.666a.666.666,0,1,1,0-1.333H34.044L30,500.064a.667.667,0,0,1,.943-.943l5.183,5.183a.663.663,0,0,1,.144.727.67.67,0,0,1-.616.41Z" transform="translate(-4 -498.925)" fill="#e56a17"/>
        </g>
        <g id="Group_2330" data-name="Group 2330" transform="translate(25.798 5.181)">
          <path id="Path_5933" data-name="Path 5933" d="M1243.491,754.249a.657.657,0,0,1-.471-.2.667.667,0,0,1,0-.943l5.189-5.19a.667.667,0,0,1,.943.943l-5.189,5.189A.665.665,0,0,1,1243.491,754.249Z" transform="translate(-1242.825 -747.725)" fill="#e56a17"/>
        </g>
      </g>
    </g>
  </g>
</svg>
