<?xml version="1.0" encoding="UTF-8"?>
<svg id="Layer_2" data-name="Layer 2" xmlns="http://www.w3.org/2000/svg" viewBox="0 0 223.56 50">
  <defs>
    <style>
      .cls-1 {
        fill: #ed1c24;
      }

      .cls-1, .cls-2 {
        stroke-width: 0px;
      }

      .cls-2 {
        fill: #fff;
      }
    </style>
  </defs>
  <g id="Layer_1-2" data-name="Layer 1">
    <g>
      <g>
        <path class="cls-2" d="M112.9,22.85v-7.7h-7.73v7.7h-4.32V3.49h4.32v7.59h7.73V3.49h4.34v19.37h-4.34Z"/>
        <path class="cls-1" d="M129.83,3.08c5.44,0,10.05,3.96,10.05,10.11s-4.62,10.08-10.05,10.08-10.08-3.96-10.08-10.08,4.62-10.11,10.08-10.11ZM129.83,19c2.68,0,5.57-1.8,5.57-5.84s-2.9-5.87-5.57-5.87-5.6,1.83-5.6,5.87,2.9,5.84,5.6,5.84Z"/>
        <path class="cls-2" d="M142.25,15.86V3.49h4.32v12.02c0,2.35,1.31,3.52,3.36,3.52s3.36-1.17,3.36-3.52V3.49h4.32v12.37c0,4.86-3.41,7.43-7.68,7.43s-7.68-2.57-7.68-7.43Z"/>
        <path class="cls-2" d="M170.55,9.33c-.14-.9-.87-2.43-3.22-2.43-1.61,0-2.65,1.01-2.65,2.08,0,.93.57,1.61,1.91,1.86l2.59.49c3.69.68,5.6,3.06,5.6,5.82,0,3.03-2.54,6.12-7.16,6.12-5.35,0-7.65-3.47-7.92-6.2l3.96-.96c.16,1.78,1.37,3.33,4.02,3.33,1.69,0,2.73-.82,2.73-2.02,0-.98-.79-1.69-2.08-1.94l-2.65-.49c-3.28-.63-5.27-2.81-5.27-5.68,0-3.66,3.22-6.23,6.94-6.23,4.83,0,6.66,2.9,7.07,5.16l-3.88,1.09Z"/>
        <path class="cls-2" d="M177.19,22.85V3.49h4.37v19.37h-4.37Z"/>
        <path class="cls-2" d="M197.45,22.85l-7.98-12.73v12.73h-4.29V3.49h5.24l7.27,11.77V3.49h4.32v19.37h-4.56Z"/>
        <path class="cls-2" d="M220.04,22.85l-.27-1.97c-.85,1.23-2.68,2.38-5.44,2.38-5.38,0-9.81-3.96-9.81-10.08s4.62-10.11,10.08-10.11,8.11,3.28,8.96,5.98l-4.15,1.45c-.3-1.2-1.58-3.39-4.81-3.39-2.62,0-5.71,1.75-5.71,6.06,0,4.04,2.68,6.15,5.82,6.15s4.53-2.08,4.78-3.17h-5.82v-3.66h9.86v10.35h-3.5Z"/>
        <path class="cls-2" d="M112.9,47.25v-7.7h-7.73v7.7h-4.32v-19.37h4.32v7.59h7.73v-7.59h4.34v19.37h-4.34Z"/>
        <path class="cls-2" d="M120.46,40.25v-12.37h4.32v12.02c0,2.35,1.31,3.52,3.36,3.52s3.36-1.17,3.36-3.52v-12.02h4.32v12.37c0,4.86-3.41,7.43-7.68,7.43s-7.68-2.57-7.68-7.43Z"/>
        <path class="cls-2" d="M146.3,27.88c3.82,0,6.04,2.21,6.04,5.19,0,1.99-1.26,3.63-2.84,4.15,1.75.41,3.44,2.02,3.44,4.53,0,3.17-2.4,5.49-6.06,5.49h-7.81v-19.37h7.24ZM145.61,35.64c1.5,0,2.49-.79,2.49-2.1s-.85-2.08-2.54-2.08h-2.29v4.18h2.35ZM145.97,43.72c1.67,0,2.68-.87,2.68-2.27s-.98-2.27-2.68-2.27h-2.7v4.53h2.7Z"/>
      </g>
      <circle class="cls-1" cx="45.51" cy="45.41" r="3.7"/>
      <g>
        <polygon class="cls-2" points="32.42 15.61 32.42 10.72 7.67 10.72 7.67 15.61 17.89 15.61 2.44 21.13 2.44 26.32 22.3 19.22 22.33 22.23 2.44 29.45 2.44 34.65 22.38 27.41 22.39 29.63 2.44 36.56 2.44 41.73 22.44 34.79 22.47 37.79 2.44 44.82 2.44 50 27.38 41.25 27.18 17.49 32.42 15.61"/>
        <polygon class="cls-2" points="4.89 9.64 20.05 7.66 35.22 9.64 35.22 16.9 40.11 16.9 40.11 5.35 22.5 3.05 22.5 0 17.61 0 17.61 3.05 0 5.35 0 16.9 4.89 16.9 4.89 9.64"/>
        <polygon class="cls-2" points="35.17 37.91 35.17 19.26 30.28 19.26 30.28 40.84 38.66 45.31 40.96 40.99 35.17 37.91"/>
      </g>
      <path class="cls-2" d="M68.72,47.21h-17.08v-4.89h17.08v4.89ZM61.27,34.48h7.44v4.89h-23.2v-4.89h10.87v-3.48h-10.87v-4.89h10.87v-3.63h-10.87v-7.17h0v-4.59h0V3.55h26.19v18.93h-10.44v3.63h7.28v4.89h-7.28v3.48ZM67.13,17.9v-2.59h-5.85v2.59h5.85ZM67.13,8.13h-5.85v2.59h5.85v-2.59ZM50.1,10.72h6.29v-2.59h-6.29v2.59ZM56.39,17.9v-2.59h-6.29v2.59h6.29ZM89.49,26.11v21.09h-18.22v-21.09h4.39V3.54h4.89v8.84h8.61v4.89h-8.61v8.85h8.94ZM84.6,31h-8.45v11.32h8.45v-11.32Z"/>
    </g>
  </g>
</svg>