<?xml version="1.0" encoding="UTF-8"?>
<svg id="Layer_2" data-name="Layer 2" xmlns="http://www.w3.org/2000/svg" viewBox="0 0 20 20">
  <defs>
    <style>
      .cls-1 {
        fill: none;
      }

      .cls-1, .cls-2 {
        stroke-width: 0px;
      }

      .cls-2 {
        fill: #262422;
      }
    </style>
  </defs>
  <g id="Layer_1-2" data-name="Layer 1">
    <g>
      <g>
        <path class="cls-2" d="M10,19.05C5.01,19.05.95,14.99.95,10S5.01.95,10,.95s9.05,4.06,9.05,9.05-4.06,9.05-9.05,9.05ZM10,1.95C5.56,1.95,1.95,5.56,1.95,10s3.61,8.05,8.05,8.05,8.05-3.61,8.05-8.05S14.44,1.95,10,1.95Z"/>
        <path class="cls-2" d="M10,19.05c-2.63,0-4.68-3.98-4.68-9.05S7.37.95,10,.95s4.68,3.98,4.68,9.05-2.06,9.05-4.68,9.05ZM10,1.95c-2,0-3.68,3.69-3.68,8.05s1.69,8.05,3.68,8.05,3.68-3.69,3.68-8.05S12,1.95,10,1.95Z"/>
        <path class="cls-2" d="M10,7.83c-3.22,0-6.2-.56-7.77-1.47-.24-.14-.32-.44-.18-.68.14-.24.44-.32.68-.18,1.43.82,4.21,1.34,7.27,1.34s5.85-.51,7.27-1.34c.24-.14.54-.06.68.18.14.24.06.54-.18.68-1.57.91-4.55,1.47-7.77,1.47Z"/>
        <path class="cls-2" d="M17.52,14.57c-.08,0-.17-.02-.25-.07-1.43-.82-4.21-1.34-7.27-1.34s-5.84.51-7.27,1.34c-.24.14-.54.06-.68-.18-.14-.24-.06-.54.18-.68,1.57-.91,4.55-1.47,7.77-1.47s6.2.56,7.77,1.47c.24.14.32.44.18.68-.09.16-.26.25-.43.25Z"/>
        <path class="cls-2" d="M10,19.05c-.28,0-.5-.22-.5-.5V1.45c0-.28.22-.5.5-.5s.5.22.5.5v17.1c0,.28-.22.5-.5.5Z"/>
      </g>
      <rect class="cls-1" width="20" height="20"/>
    </g>
  </g>
</svg>