<?xml version="1.0" encoding="UTF-8"?>
<svg id="Layer_2" data-name="Layer 2" xmlns="http://www.w3.org/2000/svg" viewBox="0 0 20 20">
  <defs>
    <style>
      .cls-1 {
        fill: none;
      }

      .cls-1, .cls-2 {
        stroke-width: 0px;
      }

      .cls-2 {
        fill: #262422;
      }
    </style>
  </defs>
  <g id="Layer_1-2" data-name="Layer 1">
    <g>
      <g>
        <path class="cls-2" d="M19.3,5.29H.7c-.28,0-.5-.22-.5-.5s.22-.5.5-.5h18.6c.28,0,.5.22.5.5s-.22.5-.5.5Z"/>
        <path class="cls-2" d="M19.3,10.5H.7c-.28,0-.5-.22-.5-.5s.22-.5.5-.5h18.6c.28,0,.5.22.5.5s-.22.5-.5.5Z"/>
        <path class="cls-2" d="M19.3,15.7H.7c-.28,0-.5-.22-.5-.5s.22-.5.5-.5h18.6c.28,0,.5.22.5.5s-.22.5-.5.5Z"/>
      </g>
      <rect class="cls-1" width="20" height="20"/>
    </g>
  </g>
</svg>