<?xml version="1.0" encoding="UTF-8"?>
<svg id="Layer_2" data-name="Layer 2" xmlns="http://www.w3.org/2000/svg" viewBox="0 0 18 18">
  <defs>
    <style>
      .cls-1 {
        fill: none;
      }

      .cls-1, .cls-2 {
        stroke-width: 0px;
      }

      .cls-2 {
        fill: #262422;
      }
    </style>
  </defs>
  <g id="Layer_1-2" data-name="Layer 1">
    <g>
      <path class="cls-2" d="M14.11,12.37c-.71,0-1.34.3-1.8.77l-6.04-3.46c.06-.22.1-.44.1-.68s-.04-.46-.1-.68l6.04-3.46c.45.47,1.09.77,1.8.77,1.38,0,2.49-1.12,2.49-2.49s-1.12-2.49-2.49-2.49-2.49,1.12-2.49,2.49c0,.24.04.46.1.68l-6.04,3.46c-.45-.47-1.09-.77-1.8-.77-1.38,0-2.49,1.12-2.49,2.49s1.12,2.49,2.49,2.49c.71,0,1.34-.3,1.8-.77l6.04,3.46c-.06.22-.1.44-.1.68,0,1.38,1.12,2.49,2.49,2.49s2.49-1.12,2.49-2.49-1.12-2.49-2.49-2.49Z"/>
      <rect class="cls-1" width="18" height="18"/>
    </g>
  </g>
</svg>