<?xml version="1.0" encoding="UTF-8"?>
<svg id="Layer_2" data-name="Layer 2" xmlns="http://www.w3.org/2000/svg" xmlns:xlink="http://www.w3.org/1999/xlink" viewBox="0 0 88 31">
  <defs>
    <style>
      .cls-1 {
        fill: none;
      }

      .cls-2 {
        clip-path: url(#clippath);
      }

      .cls-3 {
        fill: #901a16;
      }

      .cls-4 {
        fill: #0b5196;
      }

      .cls-5 {
        fill: #1d1d1b;
      }

      .cls-6 {
        clip-path: url(#clippath-1);
      }

      .cls-7 {
        clip-path: url(#clippath-4);
      }

      .cls-8 {
        clip-path: url(#clippath-3);
      }

      .cls-9 {
        clip-path: url(#clippath-2);
      }

      .cls-10 {
        clip-path: url(#clippath-7);
      }

      .cls-11 {
        clip-path: url(#clippath-8);
      }

      .cls-12 {
        clip-path: url(#clippath-6);
      }

      .cls-13 {
        clip-path: url(#clippath-5);
      }

      .cls-14 {
        fill: #3b3b3a;
      }

      .cls-14, .cls-15, .cls-16, .cls-17, .cls-18, .cls-19, .cls-20, .cls-21, .cls-22, .cls-23, .cls-24, .cls-25, .cls-26 {
        fill-rule: evenodd;
      }

      .cls-15 {
        fill: #5c5c5b;
      }

      .cls-16 {
        fill: #3a3a3a;
      }

      .cls-17 {
        fill: #57585a;
      }

      .cls-18 {
        fill: #727271;
      }

      .cls-19 {
        fill: #c8c8c8;
      }

      .cls-20 {
        fill: #dadada;
      }

      .cls-21 {
        fill: #c7af81;
      }

      .cls-22 {
        fill: #323232;
      }

      .cls-23 {
        fill: #333332;
      }

      .cls-24 {
        fill: #ffe19e;
      }

      .cls-25 {
        fill: #fff;
      }

      .cls-26 {
        fill: #6a6c6e;
      }
    </style>
    <clipPath id="clippath">
      <polygon class="cls-1" points="0 30 88 30 88 31 0 31 0 30 0 30"/>
    </clipPath>
    <clipPath id="clippath-1">
      <polygon class="cls-1" points="87 0 88 0 88 30 87 30 87 0 87 0"/>
    </clipPath>
    <clipPath id="clippath-2">
      <rect class="cls-1" x="87" y="30" width="1"/>
    </clipPath>
    <clipPath id="clippath-3">
      <polygon class="cls-1" points="2.16 29 87.16 29 87.16 30 2.16 30 2.16 29 2.16 29"/>
    </clipPath>
    <clipPath id="clippath-4">
      <polygon class="cls-1" points="2.16 30 87.16 30 87.16 30 2.16 30"/>
    </clipPath>
    <clipPath id="clippath-5">
      <polygon class="cls-1" points="2.16 29 87.16 29 87.16 30 2.16 30 2.16 29 2.16 29"/>
    </clipPath>
    <clipPath id="clippath-6">
      <rect class="cls-1" x="87" y="29" width=".16" height="1"/>
    </clipPath>
    <clipPath id="clippath-7">
      <rect class="cls-1" x="87" y="30" width=".16"/>
    </clipPath>
    <clipPath id="clippath-8">
      <polygon class="cls-1" points="85.96 0 86.96 0 86.96 29 85.96 29 85.96 0 85.96 0"/>
    </clipPath>
  </defs>
  <g id="Layer_1-2" data-name="Layer 1">
    <g>
      <polygon class="cls-24" points="0 0 88 0 88 31 0 31 0 0 0 0"/>
      <polygon class="cls-25" points=".37 0 30.37 0 30.37 31 .37 31 .37 0 .37 0"/>
      <polygon class="cls-18" points="0 30 88 30 88 31 0 31 0 30 0 30"/>
      <g class="cls-2">
        <g>
          <polygon class="cls-26" points="0 0 88 0 88 31 0 31 0 0 0 0"/>
          <polygon class="cls-18" points=".37 0 30.37 0 30.37 31 .37 31 .37 0 .37 0"/>
        </g>
      </g>
      <polygon class="cls-18" points="87 0 88 0 88 30 87 30 87 0 87 0"/>
      <g class="cls-6">
        <g>
          <polygon class="cls-26" points="0 0 88 0 88 31 0 31 0 0 0 0"/>
          <polygon class="cls-14" points="0 30 88 30 88 31 0 31 0 30 0 30"/>
        </g>
      </g>
      <g class="cls-9">
        <polygon class="cls-16" points="0 0 88 0 88 31 0 31 0 0 0 0"/>
      </g>
      <polygon class="cls-20" points="0 0 1 0 1 31 0 31 0 0 0 0"/>
      <polygon class="cls-19" points="2.16 29 87.16 29 87.16 30 2.16 30 2.16 29 2.16 29"/>
      <g class="cls-8">
        <g>
          <polygon class="cls-21" points="0 0 88 0 88 31 0 31 0 0 0 0"/>
          <polygon class="cls-19" points=".37 0 30.37 0 30.37 31 .37 31 .37 0 .37 0"/>
          <polygon class="cls-15" points="0 30 88 30 88 31 0 31 0 30 0 30"/>
        </g>
      </g>
      <g class="cls-7">
        <g>
          <polygon class="cls-17" points="0 0 88 0 88 31 0 31 0 0 0 0"/>
          <polygon class="cls-15" points=".37 0 30.37 0 30.37 31 .37 31 .37 0 .37 0"/>
        </g>
      </g>
      <g class="cls-13">
        <polygon class="cls-15" points="87 0 88 0 88 30 87 30 87 0 87 0"/>
      </g>
      <g class="cls-12">
        <g>
          <polygon class="cls-17" points="0 0 88 0 88 31 0 31 0 0 0 0"/>
          <polygon class="cls-23" points="0 30 88 30 88 31 0 31 0 30 0 30"/>
        </g>
      </g>
      <g class="cls-10">
        <polygon class="cls-22" points="0 0 88 0 88 31 0 31 0 0 0 0"/>
      </g>
      <polygon class="cls-19" points="85.96 0 86.96 0 86.96 29 85.96 29 85.96 0 85.96 0"/>
      <g class="cls-11">
        <polygon class="cls-21" points="0 0 88 0 88 31 0 31 0 0 0 0"/>
      </g>
      <polygon class="cls-20" points="0 0 88 0 88 1 0 1 0 0 0 0"/>
      <path class="cls-5" d="m26.71,9.83l.27,1.64-1,1.83c-.24-.47-.58-.89-1-1.21-.38-.33-.89-.45-1.37-.33-.86.32-1.52,1.04-1.77,1.93-.27.73-.41,1.51-.41,2.29-.03.45.01.9.11,1.34-.39-.83-.59-1.73-.58-2.65-.03-1.09.21-2.17.7-3.14.31-.74.96-1.29,1.74-1.48.56-.03,1.1.18,1.5.57.32.32.59.68.8,1.08l.94-1.87h.07Z"/>
      <path class="cls-5" d="m26.83,19.11c-.2.37-.43.72-.69,1.05-.36.44-.81.8-1.31,1.06-.45.23-.96.31-1.46.25-.47-.07-.92-.25-1.3-.53-.35-.27-.66-.58-.93-.93-.27-.38-.7-1.14-.7-1.14,0,0,.24.76.39,1.09.19.44.43.86.71,1.25.47.71,1.18,1.22,2,1.44.66.12,1.33-.02,1.89-.39.28-.19.54-.41.77-.66.22-.25.42-.51.6-.78.09-.15.24-.44.24-.44l-.24-1.27h.03Z"/>
      <polygon class="cls-4" points="9.25 9.9 11.55 17.72 13.85 9.9 15.52 9.9 11.71 22.75 11.55 22.75 9.17 14.79 6.79 22.75 6.63 22.75 2.82 9.9 4.49 9.9 6.79 17.72 8.35 12.45 7.58 9.9 9.25 9.9 9.25 9.9"/>
      <path class="cls-4" d="m20.25,18.63c.03,1.05-.29,2.09-.93,2.93-.99,1.33-2.87,1.6-4.2.6-.05-.04-.09-.07-.14-.11-.58-.51-1-1.17-1.22-1.91l1.3-.54c.16.44.42.83.76,1.15.3.28.69.43,1.1.42.48-.03.92-.31,1.13-.75.32-.54.47-1.16.46-1.79.04-.64-.14-1.27-.5-1.8-.44-.52-1.11-.8-1.79-.74h-.63v-.76l2.22-3.84h-2.68l-.75,1.27h-.48v-2.86h6.19v.78l-2.35,4c.78.24,1.45.75,1.88,1.45.43.75.65,1.6.63,2.46v.04Z"/>
      <path class="cls-5" d="m51.32,14.89h-1.79l-1-3.89c0-.14-.1-.43-.19-.86s-.14-.73-.15-.88c0,.19-.07.48-.15.88s-.15.69-.19.87l-1,3.88h-1.78l-1.89-7.41h1.54l1,4c.17.75.29,1.4.36,1.94,0-.19.07-.49.14-.89.05-.32.12-.63.21-.94l1.08-4.15h1.48l1.08,4.15c.05.19.11.47.18.85s.12.71.16,1c0-.26.09-.59.16-1s.14-.71.2-1l1-4h1.54l-1.99,7.45Z"/>
      <path class="cls-5" d="m58.26,14.89l-.54-1.77h-2.72l-.54,1.77h-1.69l2.61-7.44h1.92l2.63,7.44h-1.67Zm-.91-3.08c-.5-1.6-.78-2.5-.84-2.71s-.11-.38-.14-.5c-.11.43-.45,1.5-1,3.21h1.98Z"/>
      <path class="cls-5" d="m64.39,14.89h-3.39v-.89l.9-.42v-4.79l-.9-.42v-.89h3.37v.89l-.9.42v4.79l.9.42.02.89Z"/>
      <path class="cls-5" d="m66,12.44v-1.27h2.72v1.27h-2.72Z"/>
      <path class="cls-3" d="m74.51,14.89l-.53-1.77h-2.7l-.54,1.77h-1.69l2.61-7.44h1.92l2.63,7.44h-1.7Zm-.91-3.08c-.5-1.6-.78-2.5-.84-2.71s-.11-.38-.13-.5c-.11.43-.45,1.5-1,3.21h1.97Z"/>
      <path class="cls-3" d="m82.12,14.91l-.54-1.77h-2.7l-.54,1.77h-1.69l2.61-7.44h1.92l2.63,7.44h-1.69Zm-.92-3.21c-.49-1.6-.77-2.5-.83-2.71s-.11-.37-.14-.5c-.11.44-.45,1.51-1,3.21h1.97Z"/>
      <path class="cls-5" d="m44.43,26.31h-1.73l-1-3.75c0-.13-.1-.41-.19-.82s-.13-.7-.15-.85c0,.18-.06.46-.14.85s-.14.67-.18.83l-1,3.74h-1.64l-1.82-7.14h1.48l.92,3.9c.16.72.27,1.34.34,1.87,0-.18.07-.47.14-.86.05-.31.12-.61.2-.91l1-4h1.43l1,4c0,.18.1.46.17.82s.12.69.15.95c0-.25.09-.57.16-.95s.14-.68.2-.92l.9-3.9h1.49l-1.73,7.14Z"/>
      <path class="cls-5" d="m49.72,20.33c-.52-.02-1.01.22-1.32.64-.34.53-.51,1.16-.47,1.79,0,1.6.6,2.39,1.79,2.39.63-.02,1.24-.15,1.83-.37v1.22c-.63.26-1.32.38-2,.37-.89.06-1.77-.29-2.38-.94-.6-.78-.89-1.74-.82-2.72-.02-.67.12-1.34.4-1.95.26-.53.66-.98,1.17-1.28.54-.31,1.15-.47,1.77-.45.73,0,1.44.18,2.09.51l-.48,1.23c-.27-.13-.54-.24-.81-.34-.25-.07-.51-.11-.77-.1Z"/>
      <path class="cls-5" d="m57.29,26.31l-.52-1.7h-2.6l-.52,1.7h-1.65l2.52-7.16h1.85l2.53,7.16h-1.61Zm-.88-3c-.48-1.53-.75-2.41-.81-2.61-.05-.16-.1-.32-.13-.48-.11.42-.42,1.45-.92,3.09h1.86Z"/>
      <path class="cls-5" d="m62,22.3h2.83v3.7c-.42.14-.86.24-1.3.31-.41.06-.83.09-1.24.09-.93.05-1.83-.32-2.47-1-.62-.77-.92-1.75-.85-2.73-.06-1,.31-1.97,1-2.69.74-.69,1.73-1.05,2.74-1,.73,0,1.45.15,2.12.44l-.5,1.21c-.51-.25-1.06-.39-1.63-.39-.6-.02-1.17.22-1.57.66-.41.49-.63,1.13-.59,1.77-.05.63.12,1.26.47,1.78.34.42.86.64,1.39.61.34,0,.67-.03,1-.1v-1.49h-1.4v-1.17Z"/>
      <path class="cls-5" d="m74.65,26.31h-4.79v-1.05l1.68-1.81.57-.63c.16-.18.31-.36.45-.56.12-.17.22-.36.29-.56.06-.2.1-.4.1-.61.01-.21-.07-.41-.22-.56-.16-.14-.37-.21-.58-.2-.26,0-.51.07-.74.19-.27.15-.52.33-.75.54l-.82-1c.15-.13.3-.26.46-.38.16-.12.34-.23.52-.33.21-.1.42-.17.64-.22.26-.06.52-.09.78-.09.31,0,.62.05.92.14.26.09.49.23.69.41.19.17.34.39.44.63.11.26.17.55.16.83,0,.28-.05.55-.15.81-.11.26-.24.52-.4.75-.18.26-.38.5-.59.73-.22.24-.46.49-.71.74l-.86.87v.05h2.91v1.31Z"/>
      <path class="cls-5" d="m76.14,25.62c0-.13.02-.26.06-.39.04-.1.1-.19.18-.26.08-.06.18-.11.28-.14.11-.02.23-.02.34,0,.11-.02.21-.02.32,0,.1.03.19.08.27.14.08.07.15.16.19.26.04.13.06.26.06.39,0,.13-.02.25-.06.37-.04.1-.11.19-.19.26-.08.07-.17.12-.27.15-.1.03-.21.05-.32.05-.12,0-.23-.02-.34-.05-.1-.03-.2-.08-.28-.15-.08-.07-.14-.16-.18-.26-.04-.12-.06-.24-.06-.37Z"/>
      <path class="cls-5" d="m83.81,22.66c0,.52-.04,1.05-.14,1.56-.07.41-.22.8-.43,1.16-.19.31-.45.56-.77.73-.35.18-.74.26-1.14.25-.38,0-.75-.08-1.09-.25-.31-.17-.58-.42-.76-.73-.22-.36-.38-.75-.46-1.16-.11-.51-.16-1.04-.15-1.56,0-.52.04-1.05.13-1.56.07-.41.22-.81.44-1.17.18-.31.44-.56.76-.73.7-.34,1.52-.34,2.22,0,.31.17.58.43.77.73.22.36.38.76.47,1.17.11.51.16,1.04.15,1.56Zm-3.42,0c-.02.62.05,1.25.21,1.85.07.35.37.61.73.62.36,0,.67-.26.74-.61.29-1.22.29-2.5,0-3.72-.15-.42-.39-.63-.74-.63-.16,0-.32.06-.44.16-.14.13-.24.29-.29.47-.09.25-.14.51-.16.78-.04.36-.06.72-.05,1.08h0Z"/>
    </g>
  </g>
</svg>