<svg xmlns="http://www.w3.org/2000/svg" viewBox="0 0 141.14 28"><defs><style>.cls-1{fill:red;}.cls-2{fill:#1a1a1a;}</style></defs><g id="Layer_2" data-name="Layer 2"><g id="Layer_1-2" data-name="Layer 1"><path class="cls-1" d="M24.89,24.89H3V3.11H24.81ZM6.22,21.78H21.78V6.22H6.22Z"/><rect class="cls-1" x="15.56" y="18.67" width="3.11" height="9.33"/><rect class="cls-1" x="9.33" y="18.67" width="3.11" height="9.33"/><rect class="cls-1" y="15.56" width="9.33" height="3.11"/><rect class="cls-1" y="9.33" width="9.33" height="3.11"/><rect class="cls-1" x="9.33" width="3.11" height="9.33"/><rect class="cls-1" x="15.56" width="3.11" height="9.33"/><rect class="cls-1" x="18.67" y="9.33" width="9.33" height="3.11"/><rect class="cls-1" x="18.67" y="15.56" width="9.33" height="3.11"/><path class="cls-2" d="M43.11,11.84a30.59,30.59,0,0,1,4.28,2.73l-.79,1a30,30,0,0,0-5.13-3.36v2.32H40.08V12.2A13.71,13.71,0,0,1,35,15.46a6.55,6.55,0,0,0-.93-1.14,13.45,13.45,0,0,0,4.71-2.48H34.4V10.62h5.68V9.33c-1.4.13-2.83.22-4.16.26a4.44,4.44,0,0,0-.33-1.13A49.94,49.94,0,0,0,44.65,7.4l1,1.09a37.6,37.6,0,0,1-4.16.71v1.42h5.7v1.22ZM36.5,14.91h8.79v5.71h-1.4v-.46H37.83v.48H36.5ZM37.83,16V17h6.06V16Zm6.06,3.13V18H37.83v1.1Z"/><path class="cls-2" d="M52,13.91a15.67,15.67,0,0,0-2.35-1.45l.75-1a13.72,13.72,0,0,1,2.39,1.32Zm4.48,3.64v1.19c0,.51.14.61,1,.61h2.94c.71,0,.83-.23.92-1.57a3.51,3.51,0,0,0,1.08.44c-.17,1.75-.52,2.22-1.91,2.22h-3.1c-1.66,0-2.12-.32-2.12-1.69V15.32A8.45,8.45,0,0,1,53.8,16.8a5.65,5.65,0,0,0-.77-.87c-.54,1.42-1.22,3-1.83,4.32L50,19.48a41.89,41.89,0,0,0,2-4.39l.92.68a8.26,8.26,0,0,0,2.59-3H53.09V11.54h2.45V10.1H53.68V8.9h1.86V7.35h1.3V8.9h2.47V7.35h1.32V8.9h2v1.2h-2v1.44h2.43v1.21H60.63a7.22,7.22,0,0,0,2.55,2.7,5.12,5.12,0,0,0-.94,1,6.87,6.87,0,0,1-1.53-1.4v2.46Zm-3.82-7.46a13.81,13.81,0,0,0-2.22-1.54l.82-.93A13.2,13.2,0,0,1,53.51,9Zm4.18,2.66a15.09,15.09,0,0,1-.74,1.44h4a10.51,10.51,0,0,1-.77-1.44Zm2.78,2.44H56.5v1.36h3.14Zm-2.8-3.65h2.47V10.1H56.84Z"/><path class="cls-2" d="M72.29,15.62c-.05.35-.11.66-.18,1H77s0,.35,0,.51c-.19,1.92-.37,2.76-.75,3.13a1.55,1.55,0,0,1-1,.38,16.12,16.12,0,0,1-1.86,0A2.77,2.77,0,0,0,73,19.48c.7.07,1.38.07,1.64.07a.75.75,0,0,0,.51-.11,3.62,3.62,0,0,0,.46-1.79H71.78C71.21,19,70.13,20,68,20.65a3.17,3.17,0,0,0-.73-1c2.72-.74,3.4-2.09,3.68-4H68.1a9.9,9.9,0,0,1-1.86,5.12,4.73,4.73,0,0,0-1-1c1.53-1.91,1.66-4.69,1.66-6.79V8.42h0a66,66,0,0,0,9.22-1.07l1,1a60.14,60.14,0,0,1-8.93,1.06v.64h9.22v3.29H68.24c0,.37,0,.78,0,1.2h4.17a6.42,6.42,0,0,0-.48-.9l1.31-.3a7.06,7.06,0,0,1,.67,1.2h4.55v1.07Zm-4.05-4.5v1.17h7.9V11.12Z"/><path class="cls-2" d="M94,19.18v1.08H83.28V19.18H87.9V17.84H84.31V16.77H87.9V15.68a15.79,15.79,0,0,0-3.36.36,8.37,8.37,0,0,0-.41-1.18,1.8,1.8,0,0,0,.82-.44,9.84,9.84,0,0,0,1.18-1H83.66c-.08,2.33-.43,5.23-1.66,7.23A4.76,4.76,0,0,0,80.8,20c1.41-2.29,1.52-5.55,1.52-7.84V8H93.15v3.39H83.68v.87h9.89v1.09H90.89a17.4,17.4,0,0,1,2.64,2.26l-1.08.67a10.63,10.63,0,0,0-.84-.88l-2.39.15v1.18h3.67v1.07H89.22v1.34Zm-10.28-10v1.19H91.8V9.14Zm4.15,4.25a16.27,16.27,0,0,1-1.45,1.29l4.12-.22c-.29-.23-.58-.46-.86-.66l.68-.41Z"/><path class="cls-2" d="M107.94,14.43c-.07.24-.15.47-.22.69h2v1.14h-2.44a6.3,6.3,0,0,1-1.74,2.13c1.54.42,2.91.83,4,1.21l-1.2,1c-1.08-.41-2.51-.87-4.16-1.34a18.19,18.19,0,0,1-6.61,1.39A4.42,4.42,0,0,0,97,19.41a22.66,22.66,0,0,0,5.07-.7c-1.12-.29-2.28-.55-3.49-.8a19.06,19.06,0,0,0,1.4-1.65H96.6V15.12h4.22a13.78,13.78,0,0,0,.89-1.44l.72.18V11.55a13.2,13.2,0,0,1-5.2,3.09,4.15,4.15,0,0,0-.83-1.06,13.1,13.1,0,0,0,4.55-2.2H96.76V10.25h5.67V9c-1.48.1-3,.16-4.38.17a5.3,5.3,0,0,0-.27-1,59.64,59.64,0,0,0,9.33-.81l1,1a33.09,33.09,0,0,1-4.34.61v1.34h5.69v1.13h-4.62a46.28,46.28,0,0,1,5.1,2.13l-.64,1a52.45,52.45,0,0,0-5.13-2.27l.62-.84h-1v2.69H103c-.19.35-.39.68-.62,1h3.85a8.87,8.87,0,0,0,.35-1Zm-6.33,1.83c-.28.36-.56.7-.83,1,1,.2,2.06.45,3,.69a5.4,5.4,0,0,0,1.84-1.71Z"/><path class="cls-2" d="M121.15,18.2a43.5,43.5,0,0,1,4.28,1.51l-1.19.94A38.68,38.68,0,0,0,119.67,19l1.06-.79h-4.19l1,.69a18.18,18.18,0,0,1-4.49,1.75,7.77,7.77,0,0,0-1-1,17.22,17.22,0,0,0,4-1.47h-2.51V11.93h10.35V18.2Zm2.2-7h-9.16V7.84h9.16Zm-8.45,2.49h7.61V12.9H114.9Zm0,1.76h7.61v-.84H114.9Zm0,1.75h7.61v-.85H114.9Zm7-8.32h-6.39v1.25h6.39Z"/><path class="cls-2" d="M135.3,7.68a2.69,2.69,0,0,1-.22.28,14,14,0,0,0,6.06,2.82,5.36,5.36,0,0,0-.85,1c-.35-.1-.73-.22-1.09-.35v3.76h-9.8V11.56a11.12,11.12,0,0,1-1.07.35,5.85,5.85,0,0,0-.72-1c2.62-.66,5.18-1.92,6.5-3.62Zm3.84,3.77a14.41,14.41,0,0,1-2.31-1v.42h-5v-.35a15.93,15.93,0,0,1-2.1,1Zm-8.91,4.35h8.26v4.77h-1.37v-.39h-5.56v.44h-1.33Zm2-3.38a5.9,5.9,0,0,1,.74,1.59l-1,.32h1.71v-2h-3.14v2h1.39a6.39,6.39,0,0,0-.68-1.62Zm-.64,4.31v.79h5.56v-.79Zm5.56,2.53v-.81h-5.56v.81ZM136,9.91a9.41,9.41,0,0,1-1.59-1.22,10.79,10.79,0,0,1-1.59,1.22Zm2,2.42H134.8v2h1.62l-.9-.27a11.45,11.45,0,0,0,.73-1.7l1.13.32c-.32.62-.64,1.23-.9,1.65H138Z"/></g></g></svg>