<?xml version="1.0" encoding="UTF-8"?>
<svg xmlns="http://www.w3.org/2000/svg" baseProfile="tiny" version="1.2" viewBox="0 0 113.39 113.39">
  <!-- Generator: Adobe Illustrator 28.7.4, SVG Export Plug-In . SVG Version: 1.2.0 Build 166)  -->
  <g>
    <g id="_レイヤー_1" data-name="レイヤー_1">
      <polygon points="96.46 11.25 93.98 9.88 96.45 11.27 96.46 11.25"/>
      <path d="M98.26,35.67c-1.76-4.14-4.09-8.01-6.9-11.52l5.24-12.8-.15-.08-2.45-1.39-2.47-1.36-1,1.36-5.79,7.82c-1.15-.9-2.33-1.74-3.56-2.53-6.4-4.16-16.75-5.59-24.49-.7-7.69-4.89-18.09-3.47-24.49.7-1.2.83-2.41,1.63-3.55,2.53l-5.78-7.82-1-1.38h0l-2.47,1.38-2.47,1.37h0l-.15.08,5.22,12.82c-2.81,3.51-5.13,7.38-6.89,11.52-3.92,8.91-4.87,20.4-2.53,31.74,3.3,16,3.93,23.61,1.57,37.47,8.09-8,12.18-17.44,11.06-28.34s-.64-17.72,2.57-25.54c.65-1.59,1.33-3.06,2-4.44-.07.22-.15.43-.21.66-2.4,8.76,2.75,17.81,11.5,20.23l.29.07c-.92.68-1.65,1.56-2.15,2.59-.92,2.06-.94,4.42-.07,6.5.4.99.95,1.92,1.64,2.74-3.97-1.23-7.7-3.14-11.02-5.65l7.12,25.51s7.31-4.21,19.8-4.21,19.86,4.25,19.86,4.25l7.08-25.55c-3.31,2.5-7.04,4.41-11,5.64.68-.82,1.23-1.74,1.63-2.73.88-2.08.85-4.44-.08-6.5-.5-1.03-1.24-1.92-2.17-2.59l.3-.07c8.75-2.42,13.9-11.47,11.5-20.23-.06-.22-.14-.43-.21-.65.71,1.38,1.39,2.84,2,4.43,3.2,7.82,3.65,14.76,2.55,25.54s3,20.32,11,28.34c-2.29-13.88-1.65-21.51,1.64-37.47,2.35-11.34,1.39-22.83-2.52-31.74ZM33.71,48.34c.18-.69.43-1.35.72-2,1.05,2.51,2.36,4.9,3.91,7.13,1.94,2.78,4.33,5.22,7.06,7.23,1.24.9,2.54,1.7,3.9,2.4-2.29.78-4.75.85-7.08.21-6.47-1.8-10.27-8.49-8.51-14.97ZM43.46,91.91l-2.67-.91,2-9.71c.96.71,2.02,1.28,3.13,1.71.59.24,1.17.44,1.74.64l-4.2,8.27ZM56.68,80.75c-3.15.08-6.28-.52-9.18-1.75-1.94-.68-3.52-2.12-4.36-4-.43-1.01-.43-2.14,0-3.15.49-.85,1.31-1.46,2.26-1.69,2.25-.59,4.64-.23,6.62,1,.72.46,1.35,1.04,1.87,1.71v-12.53h0c-4.48-2.21-8.22-5.69-10.75-10-2.6-4.69-4.26-9.84-4.86-15.17l.32-.31c4.62-4.16,12.53-5.25,18.15-1.06,5.62-4.19,13.54-3.1,18.15,1.06l.33.32c-.62,5.35-2.29,10.52-4.92,15.22-2.53,4.31-6.27,7.79-10.75,10h0v12.51c.52-.68,1.15-1.26,1.87-1.72,1.98-1.23,4.37-1.59,6.62-1,.95.23,1.77.85,2.26,1.7.43,1,.43,2.14,0,3.14-.84,1.88-2.42,3.32-4.36,4-2.9,1.22-6.03,1.8-9.18,1.71M72.6,91l-2.67.94-4.2-8.28c.57-.2,1.14-.4,1.74-.64,1.1-.44,2.14-1.02,3.09-1.73l2.04,9.71ZM71.16,63.34c-2.32.64-4.79.57-7.07-.21,1.36-.7,2.66-1.5,3.9-2.4,2.73-2.01,5.12-4.45,7.06-7.23,1.57-2.23,2.89-4.62,3.95-7.13.29.65.54,1.31.72,2,1.76,6.5-2.07,13.19-8.56,14.97Z"/>
    </g>
  </g>
</svg>