<?xml version="1.0" encoding="UTF-8"?>
<svg xmlns="http://www.w3.org/2000/svg" baseProfile="tiny" version="1.2" viewBox="0 0 113.39 113.38">
  <!-- Generator: Adobe Illustrator 28.7.4, SVG Export Plug-In . SVG Version: 1.2.0 Build 166)  -->
  <g>
    <g id="_レイヤー_1" data-name="レイヤー_1">
      <g id="_編集モード" data-name="編集モード">
        <path d="M66.12,100.63v-56.35c17.37-3.66,30.27-16,30.27-16h0c-4.22-3.39-8.85-6.25-13.78-8.5-4.57-2.18-9.55-3.37-14.61-3.49-3.55-.02-7.03.92-10.09,2.71-.41.24-.81.49-1.21.77-.4-.28-.81-.53-1.21-.77-3.07-1.8-6.57-2.75-10.13-2.73h-1.21c-12.07.5-24.1,9.56-26.65,11.58l-.22.18-.27.22s12.9,12.34,30.27,16v7.18h5.72v-23.08c0-2.05,1.65-3.72,3.7-3.75h.35c1.99.26,3.46,1.99,3.39,4v72.06l5.68-.03Z" fill="#FFFFFF"/>
        <path d="M31.34,69.45c-1.96,0-3.55-1.59-3.55-3.54s1.59-3.55,3.55-3.55h21.66v-5.66h-21.66c-5.09.01-9.2,4.15-9.19,9.23,0,3.3,1.78,6.34,4.65,7.98-2.64,4.33-1.27,9.98,3.06,12.62.69.42,1.43.75,2.21.97-2.18,4.58-.23,10.07,4.35,12.25,1.24.59,2.6.9,3.97.89h13.47v-5.64h-13.47c-1.96,0-3.54-1.59-3.54-3.54s1.59-3.54,3.54-3.54h5v-5.7h-10.71c-1.96,0-3.55-1.59-3.55-3.55s1.59-3.54,3.55-3.54h10.7v-5.67h-14.04Z" fill="#FFFFFF"/>
      </g>
    </g>
  </g>
</svg>