<?xml version="1.0" encoding="UTF-8"?>
<svg xmlns="http://www.w3.org/2000/svg" baseProfile="tiny" version="1.2" viewBox="0 0 113.39 113.39">
  <rect x="0" y="0" width="113.39" height="113.39" fill="white"/>
  <!-- Generator: Adobe Illustrator 28.7.4, SVG Export Plug-In . SVG Version: 1.2.0 Build 166)  -->
  <g>
    <g id="_レイヤー_2">
      <path d="M87.15,95.74l-67.31,1.35v4.25l67.31,1.35c1.95.04,3.55-1.54,3.54-3.49h0c0-1.94-1.6-3.49-3.54-3.46Z"/>
      <path d="M56.84,8.6c-21.92,0-39.69,17.77-39.69,39.69s17.77,39.69,39.69,39.69,39.69-17.77,39.69-39.69S78.76,8.6,56.84,8.6ZM42.67,67.96c-5.48,0-9.92-4.44-9.92-9.92s4.44-9.92,9.92-9.92,9.92,4.44,9.92,9.92-4.44,9.92-9.92,9.92ZM51.61,41.04c-4.66-2.89-6.09-9.01-3.2-13.66,2.89-4.65,9.01-6.08,13.66-3.2,4.66,2.89,6.09,9.01,3.2,13.66-2.89,4.65-9.01,6.08-13.66,3.2ZM71.02,67.96c-5.48,0-9.92-4.44-9.92-9.92s4.44-9.92,9.92-9.92,9.92,4.44,9.92,9.92-4.44,9.92-9.92,9.92Z"/>
    </g>
  </g>
</svg>